<?xml version="1.0" standalone="no"?>
<!DOCTYPE svg PUBLIC "-//W3C//DTD SVG 20010904//EN"
 "http://www.w3.org/TR/2001/REC-SVG-20010904/DTD/svg10.dtd">
<svg version="1.0" xmlns="http://www.w3.org/2000/svg"
 width="3302.000000pt" height="1104.000000pt" viewBox="0 0 3302.000000 1104.000000"
 preserveAspectRatio="xMidYMid meet">

<g transform="translate(0.000000,1104.000000) scale(0.100000,-0.100000)"
fill="#000000" stroke="none">
<path d="M4940 10649 c-758 -56 -1478 -263 -2125 -612 -472 -254 -860 -542
-1241 -922 -441 -439 -747 -867 -1024 -1430 -301 -612 -454 -1161 -531 -1905
-18 -165 -23 -671 -9 -810 58 -586 126 -922 278 -1370 335 -987 963 -1862
1797 -2505 741 -571 1649 -944 2570 -1055 88 -11 199 -24 246 -30 48 -5 159
-10 248 -10 l161 0 0 209 0 209 -92 6 c-438 25 -567 39 -818 87 -808 156
-1531 495 -2177 1022 -166 135 -514 478 -645 637 -596 720 -966 1542 -1097
2441 -35 237 -42 328 -48 624 -11 590 60 1077 239 1625 447 1372 1502 2500
2833 3028 375 149 765 252 1160 306 104 14 268 28 489 42 l99 6 -6 136 c-4 74
-7 168 -7 209 l0 73 -97 -1 c-54 -1 -145 -5 -203 -10z"/>
<path d="M22080 5800 l0 -1460 95 0 95 0 0 1460 0 1460 -95 0 -95 0 0 -1460z"/>
<path d="M25540 5800 l0 -1460 305 0 305 0 0 1460 0 1460 -305 0 -305 0 0
-1460z"/>
<path d="M26860 6990 l0 -270 315 0 315 0 0 270 0 270 -315 0 -315 0 0 -270z"/>
<path d="M28210 5800 l0 -1460 305 0 305 0 0 1460 0 1460 -305 0 -305 0 0
-1460z"/>
<path d="M29540 5800 l0 -1460 305 0 305 0 0 1460 0 1460 -305 0 -305 0 0
-1460z"/>
<path d="M4432 6877 l-413 -242 -239 -420 -240 -420 0 -485 0 -485 241 -421
240 -422 413 -241 413 -241 487 0 486 0 413 241 413 242 242 423 242 424 0
480 0 480 -242 424 -242 423 -413 242 -414 241 -487 0 -487 0 -413 -243z"/>
<path d="M16410 6705 l0 -325 -145 0 -145 0 0 -90 0 -90 145 0 145 0 0 -697
c1 -770 3 -798 61 -919 38 -81 119 -165 196 -207 153 -82 415 -91 601 -20 l42
16 0 90 c0 81 -2 89 -17 84 -165 -55 -187 -58 -303 -54 -133 4 -201 25 -268
82 -51 45 -98 138 -112 225 -6 39 -10 328 -10 733 l0 667 360 0 360 0 0 90 0
90 -357 2 -358 3 -3 323 -2 322 -95 0 -95 0 0 -325z"/>
<path d="M31603 6506 c-572 -109 -929 -641 -852 -1271 73 -597 586 -989 1222
-934 206 17 369 72 523 175 86 56 238 198 232 215 -2 5 -79 76 -172 158 l-168
149 -67 -54 c-133 -109 -283 -164 -451 -164 -251 0 -424 116 -504 338 -14 40
-26 75 -26 78 0 2 335 4 744 4 l744 0 6 31 c11 55 6 225 -9 342 -45 343 -204
625 -440 782 -97 65 -194 108 -307 136 -108 27 -369 35 -475 15z m344 -497
c91 -31 166 -94 225 -189 20 -33 63 -154 72 -202 l7 -38 -456 0 c-517 0 -469
-10 -439 91 84 283 335 426 591 338z"/>
<path d="M26870 5410 l0 -1070 305 0 305 0 0 1070 0 1070 -305 0 -305 0 0
-1070z"/>
<path d="M9647 6419 c-438 -48 -805 -391 -899 -839 -28 -130 -28 -320 0 -450
110 -527 584 -880 1115 -830 256 25 450 117 645 306 97 96 97 84 -1 166 l-47
40 -74 -70 c-185 -176 -384 -263 -601 -265 -124 -1 -196 12 -306 54 -188 72
-355 227 -449 418 -181 363 -106 806 181 1076 155 145 334 217 544 217 229 1
410 -77 606 -260 l76 -71 72 73 72 72 -73 65 c-139 124 -247 193 -379 243
-128 48 -334 72 -482 55z"/>
<path d="M11995 6420 c-265 -29 -506 -175 -664 -404 -224 -325 -260 -804 -86
-1162 105 -217 257 -365 479 -469 159 -75 324 -101 520 -84 256 22 436 102
642 286 46 41 84 79 84 84 0 9 -53 60 -104 100 l-26 21 -65 -61 c-160 -149
-329 -228 -541 -252 -164 -18 -355 22 -491 102 -66 40 -189 152 -237 218 -77
105 -146 285 -162 420 l-7 61 847 0 846 0 0 104 c0 199 -36 360 -119 531 -143
296 -390 472 -711 504 -56 6 -110 10 -119 10 -9 -1 -47 -5 -86 -9z m289 -196
c267 -71 459 -303 520 -624 9 -45 16 -95 16 -111 l0 -29 -741 0 -741 0 7 53
c22 161 101 349 194 464 113 138 271 233 439 263 66 12 235 4 306 -16z"/>
<path d="M14550 6420 c-256 -26 -445 -141 -592 -359 l-38 -56 0 188 0 187
-100 0 -100 0 0 -1020 0 -1020 100 0 100 0 0 643 c0 603 1 647 20 724 37 154
114 280 232 380 239 203 621 217 866 32 100 -76 173 -196 214 -353 21 -78 22
-106 25 -753 l4 -673 95 0 94 0 0 648 c0 399 -4 681 -11 737 -43 362 -279 622
-619 684 -83 15 -206 20 -290 11z"/>
<path d="M23895 6420 c-265 -29 -506 -175 -664 -404 -224 -325 -260 -804 -86
-1162 105 -217 257 -365 479 -469 159 -75 324 -101 520 -84 256 22 436 102
642 286 46 41 84 79 84 84 0 9 -53 60 -104 100 l-26 21 -65 -61 c-160 -149
-329 -228 -541 -252 -164 -18 -355 22 -491 102 -66 40 -189 152 -237 218 -77
105 -146 285 -162 420 l-7 61 847 0 846 0 0 104 c0 199 -36 360 -119 531 -143
296 -390 472 -711 504 -56 6 -110 10 -119 10 -9 -1 -47 -5 -86 -9z m289 -196
c267 -71 459 -303 520 -624 9 -45 16 -95 16 -111 l0 -29 -741 0 -741 0 7 53
c22 161 101 349 194 464 113 138 271 233 439 263 66 12 235 4 306 -16z"/>
<path d="M18937 6400 c-281 -48 -532 -234 -680 -507 l-42 -78 -3 283 -2 282
-100 0 -100 0 0 -1020 0 -1020 100 0 100 0 0 489 c0 392 3 506 15 577 78 455
381 753 803 789 l82 8 0 103 0 104 -62 -1 c-35 -1 -85 -5 -111 -9z"/>
<path d="M20156 6395 c-55 -8 -140 -26 -189 -40 -86 -24 -278 -96 -305 -113
-10 -7 -6 -25 19 -83 17 -41 34 -77 38 -82 4 -4 39 7 77 24 94 43 217 84 316
106 117 25 375 25 473 -1 289 -75 445 -281 445 -589 0 -98 0 -99 -22 -94 -273
60 -417 77 -637 77 -175 0 -310 -19 -434 -60 -243 -81 -404 -238 -452 -441
-19 -82 -19 -248 0 -319 61 -231 270 -404 560 -465 107 -23 313 -23 420 0 188
39 327 115 468 255 l97 97 0 -163 0 -164 95 0 96 0 -3 728 c-3 713 -4 729 -25
805 -46 161 -136 296 -258 382 -80 57 -156 91 -275 122 -121 31 -354 40 -504
18z m563 -995 c75 -11 177 -30 226 -42 l90 -23 -1 -160 c0 -196 -17 -264 -95
-380 -88 -131 -239 -234 -419 -286 -108 -30 -319 -38 -426 -14 -292 63 -465
290 -414 540 44 215 232 351 540 389 74 9 369 -5 499 -24z"/>
</g>
</svg>
